<?xml version="1.0" encoding="UTF-8" standalone="no"?>
<svg
   viewBox="0 0 24 24"
   version="1.1"
   id="svg1"
   sodipodi:docname="reshot-icon-edit-Q9X5K68PDE.svg"
   width="24"
   height="24"
   xmlns:inkscape="http://www.inkscape.org/namespaces/inkscape"
   xmlns:sodipodi="http://sodipodi.sourceforge.net/DTD/sodipodi-0.dtd"
   xmlns="http://www.w3.org/2000/svg"
   xmlns:svg="http://www.w3.org/2000/svg">
  <defs
     id="defs1" />
  <sodipodi:namedview
     id="namedview1"
     pagecolor="#ffffff"
     bordercolor="#000000"
     borderopacity="0.25"
     inkscape:showpageshadow="2"
     inkscape:pageopacity="0.0"
     inkscape:pagecheckerboard="0"
     inkscape:deskcolor="#d1d1d1">
    <inkscape:page
       x="0"
       y="0"
       width="24"
       height="24"
       id="page2"
       margin="0"
       bleed="0" />
  </sodipodi:namedview>
  <path
     d="m 20.548,3.452 a 1.542,1.542 0 0 1 0,2.182 l -7.636,7.636 -3.273,1.091 1.091,-3.273 7.636,-7.636 a 1.542,1.542 0 0 1 2.182,0 z M 4,21 h 15 a 1,1 0 0 0 1,-1 v -8 a 1,1 0 0 0 -2,0 v 7 H 5 V 6 h 7 A 1,1 0 0 0 12,4 H 4 A 1,1 0 0 0 3,5 v 15 a 1,1 0 0 0 1,1 z"
     id="path1" />
  <path
     style="fill:#ffffff;stroke-width:0.0207075"
     d="m 9.6704055,14.314065 c 0,-0.0085 0.2386203,-0.733045 0.5302675,-1.610009 l 0.530267,-1.594479 3.854547,-3.8582909 c 2.120001,-2.1220601 3.91189,-3.8997181 3.981975,-3.9503511 0.435554,-0.3146668 1.021983,-0.3754807 1.505715,-0.1561459 0.876206,0.3972907 1.181886,1.4570618 0.64944,2.2515622 -0.06999,0.1044367 -1.13708,1.1833235 -3.963983,4.0078077 l -3.868211,3.864901 -1.594479,0.530267 c -0.876963,0.291647 -1.6014673,0.530267 -1.6100087,0.530267 -0.00854,0 -0.01553,-0.007 -0.01553,-0.01553 z"
     id="path2" />
  <path
     style="fill:#ffffff;stroke-width:0.0207075"
     d="M 3.8322843,20.97402 C 3.4217111,20.905511 3.0783745,20.541338 3.0224697,20.115057 3.0079488,20.004334 3.002961,17.512513 3.0069929,12.383089 l 0.00595,-7.5685937 0.046683,-0.1225735 C 3.1629195,4.4207028 3.3400891,4.2273668 3.5983438,4.1040456 L 3.7584124,4.02761 7.9516825,4.0220912 c 4.1293925,-0.00543 4.1953335,-0.00489 4.3287285,0.035523 0.145863,0.044194 0.348541,0.165808 0.437083,0.2622657 0.237108,0.2583037 0.325374,0.6400601 0.223928,0.9685028 -0.08487,0.2747692 -0.319352,0.5266686 -0.593034,0.6370781 l -0.120605,0.048655 -3.6186372,0.00546 -3.6186367,0.00546 v 6.5122262 6.512227 h 6.5122819 6.512283 l 0.0054,-3.618637 0.0054,-3.618637 0.04866,-0.120605 c 0.153539,-0.380591 0.524164,-0.635219 0.924598,-0.635219 0.243704,0 0.500331,0.100284 0.680983,0.266113 0.09646,0.08854 0.218072,0.29122 0.262266,0.437083 0.04042,0.133395 0.04096,0.199336 0.03552,4.328729 l -0.0055,4.19327 -0.07644,0.160068 c -0.123321,0.258255 -0.316657,0.435425 -0.587876,0.538719 l -0.122573,0.04668 -7.620363,0.0029 c -4.4745578,0.0017 -7.666802,-0.0049 -7.7328577,-0.0159 z"
     id="path3" />
</svg>
